<svg width="35" height="35" viewBox="0 0 35 35" fill="none" xmlns="http://www.w3.org/2000/svg">
<path d="M13.476 26.1111H21.5238M17.4999 2V3.72222M28.4601 6.53985L27.2423 7.75764M33 17.4999H31.2778M3.72222 17.4999H2M7.75755 7.75764L6.53975 6.53984M11.4109 23.589C8.04808 20.2262 8.04808 14.7739 11.4109 11.4111C14.7738 8.04822 20.226 8.04822 23.5889 11.4111C26.9517 14.7739 26.9517 20.2262 23.5889 23.589L22.6467 24.5312C21.5567 25.6212 20.9444 27.0995 20.9444 28.641V29.5556C20.9444 31.4579 19.4022 33 17.4999 33C15.5976 33 14.0555 31.4579 14.0555 29.5556V28.641C14.0555 27.0995 13.4431 25.6212 12.3532 24.5312L11.4109 23.589Z" stroke="#7665FF" stroke-width="3" stroke-linecap="round" stroke-linejoin="round"/>
</svg>
