<svg width="37" height="37" viewBox="0 0 37 37" fill="none" xmlns="http://www.w3.org/2000/svg">
<path d="M26.6665 10.3332V26.6665M18.4998 16.4582V26.6665M10.3332 22.5832V26.6665M6.24984 34.8332H30.7498C31.8328 34.8332 32.8714 34.403 33.6372 33.6372C34.403 32.8714 34.8332 31.8328 34.8332 30.7498V6.24984C34.8332 5.16687 34.403 4.12826 33.6372 3.36248C32.8714 2.59671 31.8328 2.1665 30.7498 2.1665H6.24984C5.16687 2.1665 4.12826 2.59671 3.36248 3.36248C2.59671 4.12826 2.1665 5.16687 2.1665 6.24984V30.7498C2.1665 31.8328 2.59671 32.8714 3.36248 33.6372C4.12826 34.403 5.16687 34.8332 6.24984 34.8332Z" stroke="#7665FF" stroke-width="3" stroke-linecap="round" stroke-linejoin="round"/>
</svg>
