<svg width="40" height="31" viewBox="0 0 40 31" fill="none" xmlns="http://www.w3.org/2000/svg">
<path d="M18.5 8C18.5 9.5913 17.8679 11.1174 16.7426 12.2426C15.6174 13.3679 14.0913 14 12.5 14C10.9087 14 9.38258 13.3679 8.25736 12.2426C7.13214 11.1174 6.5 9.5913 6.5 8C6.5 6.4087 7.13214 4.88258 8.25736 3.75736C9.38258 2.63214 10.9087 2 12.5 2C14.0913 2 15.6174 2.63214 16.7426 3.75736C17.8679 4.88258 18.5 6.4087 18.5 8ZM12.5 18.5C9.71523 18.5 7.04451 19.6062 5.07538 21.5754C3.10625 23.5445 2 26.2152 2 29H23C23 26.2152 21.8938 23.5445 19.9246 21.5754C17.9555 19.6062 15.2848 18.5 12.5 18.5Z" stroke="white" stroke-width="3" stroke-linecap="round" stroke-linejoin="round"/>
<path d="M29 7C31.2639 8.52778 34.4333 12.8667 29 18" stroke="white" stroke-width="3" stroke-linecap="round"/>
<path d="M36.5 9C38.4248 10.1111 39.3189 14.3333 36 17" stroke="white" stroke-width="3" stroke-linecap="round"/>
</svg>
