<svg width="41" height="39" viewBox="0 0 41 39" fill="none" xmlns="http://www.w3.org/2000/svg">
<path d="M4.05556 2V0.5H2.55556V2H4.05556ZM36.9444 2H38.4444V0.5H36.9444V2ZM9.16072 17.4108C8.5754 17.997 8.57615 18.9468 9.16241 19.5321C9.74866 20.1174 10.6984 20.1167 11.2837 19.5304L9.16072 17.4108ZM16.3889 12.2941L17.4504 11.2343C17.169 10.9525 16.7871 10.7941 16.3889 10.7941C15.9907 10.7941 15.6088 10.9525 15.3274 11.2343L16.3889 12.2941ZM22.5556 18.4706L21.4941 19.5304C21.7754 19.8122 22.1573 19.9706 22.5556 19.9706C22.9538 19.9706 23.3357 19.8122 23.6171 19.5304L22.5556 18.4706ZM31.8393 11.2951C32.4246 10.7089 32.4238 9.75911 31.8376 9.17379C31.2513 8.58847 30.3016 8.58923 29.7163 9.17548L31.8393 11.2951ZM11.2163 35.9402C10.631 36.5264 10.6317 37.4762 11.218 38.0615C11.8042 38.6468 12.754 38.6461 13.3393 38.0598L11.2163 35.9402ZM20.5 28.7647L21.5615 27.7049C21.2801 27.4231 20.8982 27.2647 20.5 27.2647C20.1018 27.2647 19.7199 27.4231 19.4385 27.7049L20.5 28.7647ZM27.6607 38.0598C28.246 38.6461 29.1958 38.6468 29.782 38.0615C30.3683 37.4762 30.369 36.5264 29.7837 35.9402L27.6607 38.0598ZM2 0.5C1.17157 0.5 0.5 1.17157 0.5 2C0.5 2.82843 1.17157 3.5 2 3.5V0.5ZM39 3.5C39.8284 3.5 40.5 2.82843 40.5 2C40.5 1.17157 39.8284 0.5 39 0.5V3.5ZM4.05556 3.5H36.9444V0.5H4.05556V3.5ZM35.4444 2V26.7059H38.4444V2H35.4444ZM34.8889 27.2647H6.11111V30.2647H34.8889V27.2647ZM5.55556 26.7059V2H2.55556V26.7059H5.55556ZM6.11111 27.2647C5.80653 27.2647 5.55556 27.0168 5.55556 26.7059H2.55556C2.55556 28.6691 4.14519 30.2647 6.11111 30.2647V27.2647ZM35.4444 26.7059C35.4444 27.0168 35.1935 27.2647 34.8889 27.2647V30.2647C36.8548 30.2647 38.4444 28.6691 38.4444 26.7059H35.4444ZM11.2837 19.5304L17.4504 13.3539L15.3274 11.2343L9.16072 17.4108L11.2837 19.5304ZM15.3274 13.3539L21.4941 19.5304L23.6171 17.4108L17.4504 11.2343L15.3274 13.3539ZM23.6171 19.5304L31.8393 11.2951L29.7163 9.17548L21.4941 17.4108L23.6171 19.5304ZM13.3393 38.0598L21.5615 29.8245L19.4385 27.7049L11.2163 35.9402L13.3393 38.0598ZM19.4385 29.8245L27.6607 38.0598L29.7837 35.9402L21.5615 27.7049L19.4385 29.8245ZM2 3.5H39V0.5H2V3.5Z" fill="white"/>
</svg>
